2.2Hzhigh3min_grf.mot
version=1
nRows=12
nColumns 19
inDegrees=yes
endheader
time	1_ground_force_vx	1_ground_force_vy	1_ground_force_vz	1_ground_force_px	1_ground_force_py	1_ground_force_pz	1_ground_torque_x	1_ground_torque_y	1_ground_torque_z	2_ground_force_vx	2_ground_force_vy	2_ground_force_vz	2_ground_force_px	2_ground_force_py	2_ground_force_pz	2_ground_torque_x	2_ground_torque_y	2_ground_torque_z
            2.502500	            0.138197	           -0.541753	            0.226619	           -0.233013	            0.005581	           -0.255695	            0.065361	           -0.073299	           -0.126180	           -0.228124	           -1.659352	            0.322683	           -0.232311	            0.006130	           -0.833667	           -0.206561	           -0.028903	           -0.056564
            2.503000	            0.000491	           -1.442519	            0.085528	           -0.233013	            0.005581	           -0.255695	            0.015620	           -0.101349	           -0.075614	           -0.464326	           -1.108088	            0.418610	           -0.232311	            0.006130	           -0.833667	           -0.206580	           -0.010400	            0.056605
            2.503500	            0.412751	           -0.901249	           -0.004889	           -0.233013	            0.005581	           -0.255695	           -0.055771	           -0.082851	           -0.020188	           -0.417456	           -1.108086	            0.465518	           -0.232311	            0.006130	           -0.833667	           -0.168812	           -0.076098	           -0.037898
            2.504000	            0.045681	           -0.360129	           -0.093372	           -0.233013	            0.005581	           -0.255695	            0.079230	            0.027763	            0.001890	           -0.276844	           -1.108081	            0.606243	           -0.232311	            0.006130	           -0.833667	           -0.168837	           -0.075896	           -0.094449
            2.504500	           -0.228610	           -1.442759	            0.131953	           -0.233013	            0.005581	           -0.255695	            0.126350	           -0.009159	           -0.047672	           -0.046685	           -0.001508	            0.375445	           -0.232311	            0.006130	           -0.833667	           -0.168667	           -0.113976	           -0.019183
            2.505000	           -0.090661	           -0.001787	            0.412931	           -0.233013	            0.005581	           -0.255695	            0.001112	            0.037027	           -0.022552	           -0.040704	           -1.658843	            0.369531	           -0.232311	            0.006130	           -0.833667	           -0.149992	           -0.085482	           -0.037940
            2.505500	           -0.090838	           -0.902526	            0.271498	           -0.233013	            0.005581	           -0.255695	            0.026306	           -0.092300	           -0.041935	           -0.090856	           -0.738438	            0.419765	           -0.232311	            0.006130	           -0.833667	           -0.168649	           -0.123294	           -0.056917
            2.506000	           -0.136858	           -1.803273	            0.130179	           -0.233013	            0.005581	           -0.255695	            0.013829	           -0.064357	           -0.100101	           -0.374594	           -0.003027	            0.469440	           -0.232311	            0.006130	           -0.833667	           -0.131334	           -0.056855	           -0.094397
            2.506500	            0.183438	           -0.360496	           -0.002001	           -0.233013	            0.005581	           -0.255695	            0.093847	           -0.082605	           -0.105544	           -0.042739	           -1.106063	            0.277646	           -0.232311	            0.006130	           -0.833667	           -0.150308	           -0.000341	           -0.056487
            2.507000	            0.092177	           -1.442501	            0.085301	           -0.233013	            0.005581	           -0.255695	           -0.003011	           -0.055335	           -0.015067	           -0.463703	           -1.291901	            0.324097	           -0.232311	            0.006130	           -0.833667	           -0.206698	            0.008908	           -0.056429
            2.507500	            0.091608	           -1.441518	           -0.143979	           -0.233013	            0.005581	           -0.255695	            0.081659	           -0.008788	           -0.090270	           -0.417517	           -1.107584	            0.324734	           -0.232311	            0.006130	           -0.833667	           -0.150119	           -0.056923	           -0.094389
            2.508000	            0.137840	           -1.081764	            0.040877	           -0.233013	            0.005581	           -0.255695	           -0.057612	            0.018621	           -0.012673	           -0.277550	           -0.923598	            0.513043	           -0.232311	            0.006130	           -0.833667	           -0.112370	           -0.104118	           -0.075724
